<svg width="64" height="64" viewBox="0 0 64 64" fill="none" xmlns="http://www.w3.org/2000/svg" role="img">

<defs>
  <linearGradient id="gold" x1="0" y1="0" x2="64" y2="64" gradientUnits="userSpaceOnUse">
    <stop offset="0" stop-color="#8a6d1a"/>
    <stop offset="0.55" stop-color="#c9a227"/>
    <stop offset="1" stop-color="#e8c96a"/>
  </linearGradient>
  <filter id="glow" x="-50%" y="-50%" width="200%" height="200%">
    <feGaussianBlur stdDeviation="1.2" result="blur"/>
    <feMerge>
      <feMergeNode in="blur"/>
      <feMergeNode in="SourceGraphic"/>
    </feMerge>
  </filter>
</defs>

<g stroke="url(#gold)" stroke-width="2" stroke-linecap="round" stroke-linejoin="round" filter="url(#glow)">

  <path d="M20 10h23a5 5 0 015 5v36H20a5 5 0 01-5-5V15a5 5 0 015-5z"/>
  <path d="M24 20h17M24 28h17M24 36h11" opacity="0.72"/>
  <path d="M48 51c0 4-3 6-7 6H20c4 0 7-2 7-6"/>
  <path d="M15 16c0-4 3-6 7-6" opacity="0.55"/>

</g>
</svg>
